<svg width="45" height="45" viewBox="0 0 45 45" fill="none" xmlns="http://www.w3.org/2000/svg">
<path d="M7.63947 5.61334C7.74866 3.68192 8.21002 2.84204 9.53307 2.16758C10.9567 1.44165 13.202 1.77948 15.844 3.11736C16.982 3.69389 17.0978 3.70562 19.0922 3.44993C21.743 3.10994 25.1557 3.11114 27.6024 3.45304C29.4527 3.71161 29.5742 3.69869 30.7149 3.12096C34.4651 1.22187 37.4259 1.34613 38.498 3.44753C39.0332 4.49644 39.1325 7.21817 38.7176 9.463C38.4875 10.7075 38.5119 10.8629 39.0662 11.6796C42.9656 17.4259 40.1559 26.7405 33.474 30.2165C32.9627 30.4826 32.5318 30.6472 32.1806 30.7813C31.1023 31.193 30.7749 31.3181 31.1713 33.2133C31.3622 34.125 31.592 36.3915 31.6824 38.2503C31.8457 41.6103 31.8433 41.6338 31.254 42.3193C30.4518 43.2517 29.2957 43.2675 28.5123 42.3566C28.0014 41.7626 27.9515 41.4821 27.9515 39.1903C27.9515 35.8035 27.5803 33.5523 26.7032 31.6233C25.6601 29.3278 26.4333 28.4718 28.8187 27.9588C32.1343 27.2456 34.7238 25.1994 36.1672 22.1523C37.5395 19.2558 37.7463 15.2531 35.2654 12.8187C34.5598 11.9803 34.5107 11.2208 35.0145 8.93076C35.2027 8.07484 35.3606 6.97062 35.3653 6.47669C35.3724 5.69665 35.3013 5.57886 34.8223 5.57886C34.5191 5.57886 33.3607 6.01988 32.2485 6.55881L30.4732 7.41925C30.3118 7.49746 30.1312 7.52753 29.9531 7.50709C25.439 6.98896 21.1498 6.98095 16.6136 7.50912C16.4348 7.52993 16.2535 7.49986 16.0915 7.42126L14.3172 6.56026C13.2048 6.02035 12.0465 5.57886 11.7434 5.57886C11.0426 5.57886 11.0321 6.09625 11.6709 9.17018C12.0611 11.0475 12.3236 11.4658 11.1956 12.9669C9.50482 15.217 9.08247 18.0111 9.98917 20.9467C11.1319 24.6461 13.9303 27.1453 17.8645 27.9791C20.2361 28.4818 20.856 29.1377 19.9503 31.8572C19.2375 33.9973 18.7867 34.5489 17.7507 34.5489C16.3568 34.5489 15.4836 33.3414 15.9642 32.0778C16.1758 31.521 16.1129 31.4615 14.8071 30.9853C10.8209 29.532 7.77211 26.2745 6.3782 21.9793C5.30081 18.6597 5.77486 14.3388 7.50326 11.7272C8.09174 10.838 8.10085 10.7626 7.82622 9.06029C7.67084 8.09663 7.58681 6.54565 7.63947 5.61334Z" fill="black"/>
<path d="M6.24754 29.8976C5.67314 29.036 4.509 28.8032 3.64739 29.3777C2.78579 29.952 2.55295 31.1162 3.12735 31.9777C3.55142 32.6139 4.05874 33.1365 4.48956 33.5672C4.56899 33.6467 4.64616 33.7233 4.72152 33.7982C5.0824 34.1567 5.40104 34.4732 5.72106 34.8489C6.42889 35.6797 7.13504 36.7987 7.53636 38.8053C7.71512 39.6992 8.35759 40.1807 8.71358 40.391C9.09964 40.619 9.52146 40.7535 9.86858 40.841C10.5787 41.0201 11.4407 41.1131 12.2587 41.1673C13.1568 41.2269 14.1298 41.2462 15 41.2515C15.0006 42.2863 15.8398 43.1252 16.8749 43.1252C17.9105 43.1252 18.7499 42.2857 18.7499 41.2502V39.3752C18.7499 38.3396 17.9105 37.5002 16.8749 37.5002C16.6982 37.5002 16.507 37.5007 16.3044 37.5015C15.204 37.5048 13.7698 37.5092 12.5066 37.4255C11.8974 37.3852 11.3967 37.328 11.0295 37.2581C10.464 35.0383 9.55052 33.5613 8.57573 32.417C8.14482 31.9113 7.6986 31.4688 7.33566 31.1088C7.26771 31.0415 7.20269 30.977 7.1412 30.9155C6.72242 30.4968 6.44849 30.1991 6.24754 29.8976Z" fill="black"/>
</svg>
