<svg width="45" height="45" viewBox="0 0 45 45" fill="none" xmlns="http://www.w3.org/2000/svg">
<path fill-rule="evenodd" clip-rule="evenodd" d="M22.5 33.75C28.7132 33.75 33.75 28.7132 33.75 22.5C33.75 16.2868 28.7132 11.25 22.5 11.25C16.2868 11.25 11.25 16.2868 11.25 22.5C11.25 28.7132 16.2868 33.75 22.5 33.75ZM22.5 30C26.6421 30 30 26.6421 30 22.5C30 18.3579 26.6421 15 22.5 15C18.3579 15 15 18.3579 15 22.5C15 26.6421 18.3579 30 22.5 30Z" fill="black"/>
<path d="M33.75 9.375C32.7144 9.375 31.875 10.2145 31.875 11.25C31.875 12.2855 32.7144 13.125 33.75 13.125C34.7856 13.125 35.625 12.2855 35.625 11.25C35.625 10.2145 34.7856 9.375 33.75 9.375Z" fill="black"/>
<path fill-rule="evenodd" clip-rule="evenodd" d="M3.10117 8.01761C1.875 10.4241 1.875 13.5744 1.875 19.875V25.125C1.875 31.4256 1.875 34.5759 3.10117 36.9823C4.17975 39.0992 5.90077 40.8203 8.01761 41.8988C10.4241 43.125 13.5744 43.125 19.875 43.125H25.125C31.4256 43.125 34.5759 43.125 36.9823 41.8988C39.0992 40.8203 40.8203 39.0992 41.8988 36.9823C43.125 34.5759 43.125 31.4256 43.125 25.125V19.875C43.125 13.5744 43.125 10.4241 41.8988 8.01761C40.8203 5.90077 39.0992 4.17975 36.9823 3.10117C34.5759 1.875 31.4256 1.875 25.125 1.875H19.875C13.5744 1.875 10.4241 1.875 8.01761 3.10117C5.90077 4.17975 4.17975 5.90077 3.10117 8.01761ZM25.125 5.625H19.875C16.6628 5.625 14.4792 5.62792 12.7914 5.76581C11.1473 5.90014 10.3066 6.14361 9.72008 6.44244C8.30886 7.16151 7.16151 8.30886 6.44244 9.72008C6.14361 10.3066 5.90014 11.1473 5.76581 12.7914C5.62792 14.4792 5.625 16.6628 5.625 19.875V25.125C5.625 28.3372 5.62792 30.5207 5.76581 32.2086C5.90014 33.8528 6.14361 34.6935 6.44244 35.28C7.16151 36.6911 8.30886 37.8384 9.72008 38.5575C10.3066 38.8564 11.1473 39.0999 12.7914 39.2342C14.4792 39.372 16.6628 39.375 19.875 39.375H25.125C28.3372 39.375 30.5207 39.372 32.2086 39.2342C33.8528 39.0999 34.6935 38.8564 35.28 38.5575C36.6911 37.8384 37.8384 36.6911 38.5575 35.28C38.8564 34.6935 39.0999 33.8528 39.2342 32.2086C39.372 30.5207 39.375 28.3372 39.375 25.125V19.875C39.375 16.6628 39.372 14.4792 39.2342 12.7914C39.0999 11.1473 38.8564 10.3066 38.5575 9.72008C37.8384 8.30886 36.6911 7.16151 35.28 6.44244C34.6935 6.14361 33.8528 5.90014 32.2086 5.76581C30.5207 5.62792 28.3372 5.625 25.125 5.625Z" fill="black"/>
</svg>
