<svg width="906" height="317" viewBox="0 0 906 317" fill="none" xmlns="http://www.w3.org/2000/svg">
<g clip-path="url(#clip0_14_116)">
<path fill-rule="evenodd" clip-rule="evenodd" d="M0.255919 0.126953C0.111193 0.148027 0.121857 0.322461 0.132267 0.497148C0.132267 43.5769 0.132267 86.6501 0.132267 129.729C43.1348 130.017 86.6655 129.77 129.873 129.852C129.873 86.6097 129.873 43.3692 129.873 0.126953C86.6688 0.126953 43.4603 0.126953 0.255919 0.126953ZM65.9884 114.808C62.9868 117.834 58.2499 119.617 52.4225 119.617C42.8647 119.617 37.558 114.96 34.1707 108.518C37.4313 106.436 40.7636 104.425 44.1604 102.476C45.5457 106.351 50.2252 110.708 55.5057 108.026C58.8529 106.325 58.4665 101.168 58.4665 95.5708C58.4665 83.9488 58.4665 70.5413 58.4665 60.0564C58.4558 59.8818 58.4454 59.7073 58.5888 59.6863C62.5769 59.6863 66.5648 59.6863 70.5519 59.6863C70.5519 69.027 70.5519 79.593 70.5519 89.5276C70.5519 100.343 71.3248 109.431 65.9884 114.808ZM119.513 104.08C118.834 114.207 110.564 119.585 99.4109 119.617C88.4772 119.648 81.479 114.789 77.2111 107.285C80.2795 105.173 83.7563 103.472 86.9547 101.49C89.5141 105.492 93.9465 109.339 100.521 108.765C104.616 108.408 109.371 105.07 106.687 100.01C105.385 97.5574 102.239 96.3115 99.4109 95.078C90.4348 91.1617 79.9038 87.5697 80.911 73.498C81.2479 68.7972 83.4125 65.4936 86.2149 63.1396C89.0868 60.7275 92.9332 59.1109 98.0542 58.9474C107.355 58.6496 112.457 62.7864 115.937 68.5664C112.975 70.8238 109.712 72.7832 106.44 74.7315C105.366 71.432 100.183 68.2167 95.8341 70.169C93.8564 71.0559 92.0793 73.663 93.1214 76.8275C94.0507 79.6496 97.8412 81.1944 100.891 82.5007C110.121 86.4515 120.436 90.3127 119.513 104.08Z" fill="black"/>
</g>
<g clip-path="url(#clip1_14_116)">
<path d="M243.444 62.6841H274.362C282.969 62.6841 289.839 55.5981 289.839 46.9546V17.4804C289.839 9.09264 282.763 2.79069 274.362 1.39015C269.044 0.505536 263.527 0.103095 258.236 0.127977C252.944 0.152606 247.892 0.603798 243.444 1.39015C230.346 3.70501 227.968 8.54802 227.968 17.4804V29.2777H258.921V33.2097H227.968H216.352C207.355 33.2097 199.478 38.6166 197.015 48.9031C194.173 60.6932 194.046 68.0499 197.015 80.3616C199.215 89.5246 204.469 96.0548 213.466 96.0548H224.108V81.9124C224.108 71.6955 232.947 62.6841 243.444 62.6841ZM241.497 21.4127C238.288 21.4127 235.688 18.7835 235.688 15.532C235.688 12.2695 238.288 9.61595 241.497 9.61595C244.694 9.61595 247.304 12.2695 247.304 15.532C247.304 18.7837 244.694 21.4127 241.497 21.4127ZM320.793 48.9031C318.569 39.9478 314.323 33.2097 305.315 33.2097H293.699V46.9546C293.699 57.6116 284.664 66.5796 274.362 66.5796H243.444C234.977 66.5796 227.968 73.8278 227.968 82.3101V111.783C227.968 120.172 235.262 125.107 243.444 127.511C253.242 130.394 262.637 130.916 274.362 127.511C282.154 125.257 289.839 120.715 289.839 111.783V99.9865H258.921V96.0545H289.839H305.315C314.311 96.0545 317.665 89.7792 320.793 80.3613C324.023 70.6657 323.886 61.341 320.793 48.9031ZM276.311 107.851C279.52 107.851 282.118 110.48 282.118 113.73C282.118 116.993 279.52 119.647 276.311 119.647C273.113 119.647 270.502 116.993 270.502 113.73C270.502 110.48 273.113 107.851 276.311 107.851Z" fill="black"/>
</g>
<path fill-rule="evenodd" clip-rule="evenodd" d="M488.328 39H488.282H432.278L433.617 52H486.995C486.213 63.388 483.846 87.5149 482.978 98.4934L452.997 106.933V106.958L452.93 106.99L422.93 96.4336L420.874 71.5H435.58L436.621 84.9094L452.957 91H452.997L469.307 85.1506L470.984 65H420.218C419.973 62.3935 416.817 28.548 416.266 26H489.641C489.23 30.29 488.812 34.697 488.328 39ZM394.5 0L405.148 117.962L452.93 130L500.839 117.72L511.5 0H394.5Z" fill="black"/>
<path d="M704.665 0.127197L693.851 117.258L646.999 129.873L600.147 117.258L589.335 0.127197H704.665ZM682.874 23.9439H646.957H610.403L612.152 38.0885H646.957H648.912L646.957 38.9022L613.424 52.8686L614.536 66.6946L646.957 66.7997L664.334 66.8548L663.222 85.2899L646.957 89.8691V89.8546L646.824 89.8917L631.116 85.9264L630.163 74.4829H630.111H615.541H615.49L617.397 96.5745L646.957 105.316V105.3L647.011 105.316L676.413 96.7337L680.227 52.8686H646.957H646.875L646.957 52.8331L681.445 38.0885L682.874 23.9439Z" fill="black"/>
<path fill-rule="evenodd" clip-rule="evenodd" d="M805.425 38.5645L799.318 35.0675C798.934 34.8413 798.695 34.433 798.695 33.9899V26.5489C798.695 26.1059 798.46 25.6948 798.075 25.4744L795.475 23.9766C795.287 23.8639 795.069 23.8085 794.858 23.8085C794.641 23.8085 794.429 23.8639 794.236 23.9766L791.634 25.4744C791.249 25.6951 791.014 26.1061 791.014 26.5489V33.9899C791.014 34.433 790.779 34.8385 790.393 35.0675L784.284 38.5645C784.095 38.6808 783.859 38.6808 783.667 38.5645C783.473 38.4576 783.358 38.2512 783.358 38.0296L783.335 22.1013C783.335 21.6546 783.573 21.2443 783.956 21.0229L794.235 15.1074C794.412 15.0051 794.606 14.9525 794.802 14.9442C794.817 14.9442 794.891 14.9442 794.909 14.9442C795.106 14.9525 795.3 15.0051 795.475 15.1074L805.753 21.0232C806.139 21.2448 806.374 21.6549 806.374 22.1015L806.354 38.0298C806.354 38.2515 806.235 38.4579 806.045 38.5648C805.856 38.6811 805.616 38.6811 805.425 38.5645ZM844.965 34.2951V22.4242C844.965 21.9804 845.202 21.5711 845.586 21.3497L855.869 15.4152C856.252 15.1935 856.725 15.1927 857.11 15.4141L859.684 16.898C859.819 16.9759 859.985 16.9759 860.119 16.898C860.253 16.82 860.336 16.6766 860.336 16.5217V0.74724C860.336 0.526596 860.453 0.323978 860.642 0.211498C860.833 0.100541 861.067 0.0987635 861.26 0.205912L867.379 3.62044C867.773 3.83906 868.016 4.25495 868.016 4.70462V34.2951C868.016 34.7392 867.779 35.1482 867.395 35.3707L857.111 41.309C856.727 41.5325 856.253 41.5325 855.868 41.309L845.586 35.3707C845.202 35.1482 844.965 34.7389 844.965 34.2951ZM852.624 30.3954C852.624 30.5061 852.683 30.6084 852.779 30.6637L856.31 32.6985C856.405 32.7529 856.524 32.7529 856.619 32.6985L860.15 30.6637C860.246 30.6084 860.305 30.5061 860.305 30.3954V26.3181C860.305 26.2074 860.246 26.1041 860.15 26.0498L856.62 24.0101C856.524 23.9548 856.405 23.9548 856.308 24.0101L852.778 26.0498C852.683 26.1041 852.624 26.2074 852.624 26.3181V30.3954ZM898.046 21.1882L887.83 15.2557C887.446 15.0323 886.971 15.0315 886.587 15.2547L876.307 21.1882C875.923 21.4099 875.687 21.8199 875.687 22.2638V34.1308C875.687 34.5775 875.927 34.9885 876.314 35.2102L886.529 41.03C886.905 41.246 887.368 41.2468 887.746 41.0376L893.924 37.6035C894.12 37.4936 894.242 37.2882 894.243 37.0647C894.245 36.8413 894.126 36.6338 893.932 36.5221L883.588 30.5848C883.395 30.4741 883.276 30.2684 883.276 30.046V26.3275C883.276 26.1059 883.394 25.9005 883.587 25.7887L886.806 23.9322C886.998 23.8222 887.234 23.8222 887.425 23.9322L890.647 25.7887C890.839 25.9005 890.958 26.1061 890.958 26.3275V29.2538C890.958 29.4755 891.077 29.6809 891.269 29.7916C891.462 29.9015 891.698 29.9015 891.89 29.7906L898.046 26.2118C898.43 25.9893 898.665 25.5803 898.665 25.1372V22.262C898.665 21.8189 898.43 21.4096 898.046 21.1882ZM814.793 35.151L825.071 41.0891C825.456 41.3108 825.928 41.3108 826.313 41.0891L836.595 35.151C836.979 34.9286 837.216 34.5193 837.216 34.0755V22.2C837.216 21.757 836.979 21.3459 836.594 21.1245L826.313 15.192C825.928 14.9695 825.456 14.9695 825.071 15.192L814.793 21.1245C814.408 21.3461 814.171 21.7572 814.171 22.2V34.0755C814.171 34.5196 814.408 34.9286 814.793 35.151ZM876.025 62.5429L844.329 44.2261C842.34 43.0925 839.673 43.0925 837.667 44.2261L805.97 62.5429C803.916 63.7256 802.646 65.9443 802.646 68.3206V104.902C802.646 107.276 803.916 109.498 805.97 110.682L814.281 115.47C818.308 117.452 819.752 117.452 821.583 117.452C827.544 117.452 830.969 113.846 830.969 107.558V71.4424C830.969 70.9315 830.553 70.5291 830.051 70.5291H826.031C825.52 70.5291 825.11 70.9315 825.11 71.4424V107.558C825.11 110.345 822.225 113.12 817.514 110.767L808.831 105.747C808.525 105.581 808.331 105.253 808.331 104.902V68.3206C808.331 67.9735 808.525 67.6279 808.833 67.4515L840.511 49.1664C840.805 48.9955 841.195 48.9955 841.487 49.1664L873.172 67.4466C873.475 67.6279 873.664 67.9618 873.664 68.3203V104.901C873.664 105.253 873.475 105.588 873.18 105.757L841.482 124.054C841.211 124.219 840.795 124.219 840.5 124.054L832.369 119.226C832.127 119.087 831.818 119.034 831.583 119.168C829.332 120.445 828.906 120.613 826.798 121.345C826.276 121.527 825.506 121.84 827.084 122.721L837.668 128.983C838.681 129.57 839.835 129.873 840.992 129.873C842.166 129.873 843.316 129.571 844.33 128.983L876.026 110.682C878.078 109.487 879.356 107.276 879.356 104.901V68.3206C879.355 65.9443 878.078 63.7302 876.025 62.5429ZM852.032 101.412C842.573 101.412 840.492 99.0359 839.795 94.3317C839.714 93.8295 839.284 93.455 838.768 93.455H834.147C833.574 93.455 833.114 93.9131 833.114 94.4884C833.114 100.507 836.391 107.687 852.032 107.687C863.357 107.687 869.852 103.229 869.852 95.4411C869.852 87.7185 864.633 85.6649 853.65 84.2103C842.55 82.7414 841.422 81.984 841.422 79.3843C841.422 77.2423 842.377 74.378 850.599 74.378C857.941 74.378 860.648 75.9601 861.761 80.9075C861.859 81.3739 862.283 81.7139 862.764 81.7139H867.403C867.691 81.7139 867.964 81.59 868.159 81.3853C868.355 81.1685 868.459 80.8859 868.432 80.5893C867.714 72.0634 862.048 68.0905 850.599 68.0905C840.407 68.0905 834.329 72.3917 834.329 79.6009C834.329 87.4245 840.377 89.588 850.156 90.5529C861.859 91.7018 862.767 93.4108 862.767 95.714C862.767 99.7097 859.562 101.412 852.032 101.412ZM887.294 25.6557C887.221 25.6125 887.13 25.6125 887.057 25.6557L885.085 26.7942C885.011 26.8366 884.965 26.9153 884.965 26.9999V29.2797C884.965 29.3643 885.011 29.4432 885.085 29.4854L887.057 30.6239C887.13 30.6663 887.221 30.6663 887.294 30.6239L889.268 29.4854C889.342 29.4432 889.387 29.3643 889.387 29.2797V26.9999C889.387 26.9153 889.342 26.8366 889.268 26.7942L887.294 25.6557Z" fill="black"/>
<path d="M164.116 250.799H176.117V253.648H163.91C163.787 253.648 163.623 253.675 163.499 253.675C161.979 253.812 161.526 254.059 161.321 254.936C161.279 255.073 161.279 255.183 161.279 255.292V257.237C161.279 257.375 161.279 257.485 161.321 257.622C161.527 258.773 162.348 259.292 164.074 259.292H169.253C170.527 259.292 171.842 259.512 172.911 259.923C174.925 260.69 175.953 261.841 175.953 263.074V266.197C175.953 267.705 175.049 268.856 173.199 269.705C172.089 270.226 170.692 270.526 169.253 270.526H156.964V267.677H168.761C168.925 267.677 169.048 267.65 169.213 267.65C170.034 267.595 170.651 267.376 171.02 267.046C171.432 266.719 171.637 266.334 171.637 266.033V263.54C171.637 263.266 171.555 263.019 171.309 262.772C170.898 262.279 170.321 262.033 168.965 261.923C168.842 261.896 168.678 261.896 168.514 261.896H164.074C163.663 261.896 163.253 261.869 162.841 261.841C159.183 261.458 157.005 259.814 157.005 257.895V255.402C157.005 253.21 158.115 251.949 160.663 251.155C161.485 250.908 162.389 250.799 164.116 250.799ZM197.39 269.662L201.601 273.462H196.637L193.231 270.387L189.801 270.605H185.229C184.447 270.605 183.623 270.495 182.717 270.248C179.999 269.507 178.681 268.079 178.681 265.717V255.558C178.681 252.977 180.494 251.411 184.076 250.917C184.447 250.862 184.859 250.835 185.229 250.835H193.344C193.755 250.835 194.126 250.862 194.538 250.917C198.12 251.411 199.932 252.977 199.932 255.558V265.717C199.933 267.811 199.164 268.932 197.39 269.662ZM195.938 255.806C195.938 255.696 195.938 255.558 195.897 255.42C195.65 254.322 194.538 253.69 192.891 253.69H186.425C184.529 253.69 183.295 254.514 183.295 255.806V265.47C183.295 265.607 183.336 265.744 183.376 265.909C183.624 267.091 184.736 267.75 186.425 267.75H190.307L186.74 264.529H191.704L194.816 267.338C195.388 267.031 195.766 266.565 195.897 265.964C195.938 265.828 195.938 265.69 195.938 265.552V255.806ZM127.747 250.826C124.5 249.812 122.321 250.689 121.335 252.881L114.841 267.403L108.553 252.881C107.608 250.689 105.388 249.812 102.141 250.826C100.785 251.237 100.127 252.032 100.127 253.675V270.526H104.401V253.647L111.019 268.362C111.8 270.143 112.868 270.774 114.964 270.774C117.061 270.774 118.088 270.143 118.869 268.362L125.487 253.647V270.526H129.761V253.675C129.761 252.032 129.103 251.237 127.747 250.826ZM149.387 256.743V267.815C149.312 267.815 141.287 267.834 140.092 267.815C137.751 267.779 137.548 266.592 137.589 266.087V256.787H133.315C133.409 256.88 133.314 266.185 133.317 266.381C133.351 268.503 136.042 270.347 140.269 270.387H149.355V271.507C149.355 271.967 149.68 273.335 146.929 273.626C146.895 273.628 133.432 273.626 133.408 273.626V276.503H146.905C149.046 276.439 153.69 275.63 153.666 271.906C153.666 271.842 153.69 256.743 153.67 256.743H149.387V256.743ZM227.244 267.815L228.276 269.395H227.571L226.631 267.84H226.068V269.395H225.464V265.798H226.866C227.756 265.798 228.218 266.101 228.218 266.832C228.218 267.488 227.798 267.756 227.244 267.815ZM226.714 267.336C227.168 267.336 227.563 267.293 227.563 266.791C227.563 266.371 227.126 266.303 226.764 266.303H226.068V267.336H226.714ZM229.873 267.597C229.873 269.478 228.386 270.746 226.722 270.746C225.06 270.746 223.573 269.478 223.573 267.597C223.573 265.715 225.06 264.447 226.722 264.447C228.386 264.447 229.873 265.715 229.873 267.597ZM229.168 267.597C229.168 266.168 228.076 265.102 226.722 265.102C225.354 265.102 224.278 266.168 224.278 267.597C224.278 269.024 225.354 270.092 226.722 270.092C228.076 270.092 229.168 269.024 229.168 267.597ZM191.93 217.605C191.382 217.595 190.994 217.664 190.585 217.754C190.585 217.779 190.585 217.804 190.585 217.829C190.61 217.829 190.634 217.829 190.66 217.829C190.922 218.366 191.383 218.712 191.706 219.174C191.954 219.697 192.204 220.22 192.453 220.743C192.478 220.718 192.503 220.693 192.527 220.668C192.991 220.342 193.202 219.821 193.2 219.025C193.014 218.829 192.987 218.585 192.826 218.352C192.613 218.042 192.199 217.866 191.93 217.605ZM228.091 255.933C228.443 256.192 228.68 256.593 229.137 256.756C229.137 256.73 229.137 256.705 229.137 256.681C228.896 256.376 228.835 255.955 228.614 255.635C228.291 255.312 227.966 254.987 227.643 254.663C226.693 253.403 225.488 252.296 224.206 251.376C223.185 250.642 220.897 249.652 220.47 248.463C220.446 248.438 220.421 248.413 220.395 248.387C221.12 248.306 221.968 248.044 222.637 247.864C223.76 247.563 224.764 247.641 225.924 247.342C226.448 247.191 226.97 247.042 227.493 246.894C227.493 246.793 227.493 246.694 227.493 246.594C226.907 245.992 226.489 245.196 225.85 244.651C224.176 243.227 222.351 241.803 220.47 240.617C219.428 239.958 218.139 239.531 217.033 238.973C216.662 238.786 216.009 238.688 215.763 238.375C215.183 237.635 214.867 236.697 214.419 235.835C213.481 234.029 212.559 232.056 211.728 230.156C211.162 228.861 210.792 227.583 210.085 226.42C206.693 220.843 203.04 217.476 197.384 214.167C196.18 213.463 194.731 213.186 193.2 212.822C192.379 212.773 191.556 212.722 190.734 212.673C190.233 212.463 189.711 211.85 189.24 211.552C187.366 210.368 182.559 207.793 181.172 211.179C180.295 213.316 182.481 215.401 183.263 216.484C183.812 217.243 184.514 218.095 184.907 218.949C185.165 219.51 185.209 220.074 185.431 220.668C185.974 222.131 186.446 223.723 187.148 225.076C187.504 225.76 187.895 226.481 188.344 227.093C188.62 227.469 189.091 227.634 189.164 228.214C188.704 228.859 188.678 229.861 188.419 230.679C187.251 234.361 187.692 238.937 189.39 241.663C189.911 242.499 191.139 244.294 192.826 243.605C194.302 243.004 193.973 241.14 194.395 239.496C194.49 239.122 194.432 238.848 194.619 238.599C194.619 238.624 194.619 238.649 194.619 238.674C195.068 239.57 195.516 240.467 195.964 241.363C196.96 242.966 198.727 244.642 200.224 245.772C200.999 246.358 201.61 247.371 202.614 247.715C202.614 247.689 202.614 247.664 202.614 247.639C202.589 247.639 202.563 247.639 202.539 247.639C202.344 247.337 202.04 247.21 201.793 246.967C201.208 246.393 200.558 245.681 200.074 245.024C198.712 243.176 197.509 241.153 196.413 239.047C195.889 238.042 195.434 236.932 194.993 235.909C194.823 235.515 194.825 234.918 194.47 234.714C193.986 235.463 193.275 236.07 192.901 236.955C192.303 238.371 192.226 240.096 192.004 241.886C191.873 241.933 191.932 241.901 191.854 241.961C190.813 241.71 190.448 240.639 190.062 239.72C189.084 237.396 188.902 233.653 189.763 230.978C189.985 230.286 190.993 228.106 190.584 227.467C190.39 226.828 189.749 226.46 189.39 225.972C188.944 225.369 188.501 224.576 188.193 223.88C187.393 222.068 187.02 220.034 186.177 218.202C185.774 217.327 185.092 216.44 184.533 215.661C183.913 214.799 183.219 214.164 182.74 213.121C182.569 212.75 182.336 212.157 182.59 211.776C182.67 211.519 182.784 211.412 183.039 211.328C183.473 210.994 184.678 211.439 185.13 211.627C186.328 212.124 187.329 212.598 188.343 213.27C188.83 213.593 189.323 214.218 189.911 214.391C190.136 214.391 190.36 214.391 190.584 214.391C191.637 214.633 192.815 214.467 193.797 214.765C195.534 215.293 197.09 216.114 198.504 217.007C202.81 219.725 206.331 223.596 208.739 228.214C209.127 228.957 209.295 229.667 209.636 230.455C210.324 232.046 211.192 233.682 211.877 235.237C212.56 236.788 213.227 238.354 214.193 239.645C214.701 240.324 216.663 240.688 217.556 241.065C218.181 241.329 219.205 241.605 219.796 241.961C220.928 242.643 222.023 243.455 223.084 244.203C223.614 244.577 225.245 245.396 225.325 246.07C222.698 246 220.691 246.244 218.975 246.967C218.487 247.172 217.71 247.178 217.629 247.788C217.898 248.069 217.94 248.49 218.153 248.835C218.562 249.498 219.253 250.386 219.871 250.853C220.546 251.362 221.241 251.906 221.963 252.347C223.249 253.131 224.685 253.579 225.923 254.364C226.655 254.828 227.379 255.411 228.091 255.933ZM206.893 265.541V250.798H202.619V265.568C202.619 268.499 204.797 270.143 209.195 270.472C209.605 270.499 210.016 270.526 210.428 270.526H221.566V267.677H210.345C207.839 267.678 206.893 267.046 206.893 265.541Z" fill="black"/>
<g clip-path="url(#clip2_14_116)">
<path d="M618.35 288.096V305H648.085C654.177 305 664.634 300.424 664.998 287.629V281.092C664.998 270.165 656.269 263.721 648.085 263.721H633.263V255.876H662.634V238.879H634.445C627.171 238.879 617.441 245.043 617.441 256.53V262.414C617.441 273.901 627.08 279.784 634.445 279.784C654.905 279.878 629.535 279.784 648.449 279.784V288.003M459.039 283.987C459.039 283.987 474.952 282.586 474.952 261.48C474.952 240.374 455.675 238.412 455.675 238.412H420.939V305H438.398V288.937L453.492 305H479.317L459.039 283.987ZM452.31 270.352H438.398V255.129H452.401C452.401 255.129 456.311 256.624 456.311 262.694C456.311 268.764 452.31 270.352 452.31 270.352ZM518.053 238.879H500.322C487.682 238.879 483.409 250.647 483.409 256.25V305H501.14V293.326H517.781V305H534.967V256.25C534.967 242.055 522.418 238.879 518.053 238.879ZM517.781 274.461H501.049V258.305C501.049 258.305 501.049 254.662 506.596 254.662H512.688C517.599 254.662 517.69 258.305 517.69 258.305V274.461H517.781ZM543.059 238.879H561.518V305H543.059V238.879ZM587.434 287.909V238.879H569.066V305H612.258V287.909H587.434Z" fill="black"/>
<path d="M311.367 305H383.203C383.203 305 369.472 240.654 414.938 214.598C424.849 209.648 456.402 191.157 508.051 230.381C509.688 228.98 511.234 227.859 511.234 227.859C511.234 227.859 463.949 179.389 411.3 184.806C384.839 187.234 352.286 211.983 333.191 244.67C314.095 277.356 311.367 305 311.367 305Z" fill="black"/>
<path d="M311.367 305H383.203C383.203 305 369.472 240.654 414.938 214.598C424.849 209.648 456.402 191.157 508.051 230.381C509.688 228.98 511.234 227.859 511.234 227.859C511.234 227.859 463.949 179.389 411.3 184.806C384.839 187.234 352.286 211.983 333.191 244.67C314.095 277.356 311.367 305 311.367 305Z" fill="black"/>
<path d="M311.367 305H383.203C383.203 305 369.472 240.654 414.938 214.598C424.849 209.648 456.402 191.157 508.051 230.381C509.688 228.98 511.234 227.859 511.234 227.859C511.234 227.859 463.949 179.389 411.3 184.806C384.749 187.234 352.195 211.983 333.1 244.67C314.004 277.356 311.367 305 311.367 305ZM461.04 190.036L461.403 183.779C460.585 183.312 458.312 182.191 452.583 180.51L452.219 186.674C455.22 187.701 458.13 188.822 461.04 190.036Z" fill="black"/>
<path d="M452.401 209.835L452.037 215.718C455.038 215.812 458.039 216.185 461.039 216.839L461.403 211.049C458.312 210.395 455.311 210.022 452.401 209.835ZM418.757 180.697H419.666L417.847 175C415.028 175 412.119 175.187 409.118 175.56L410.846 181.07C413.483 180.79 416.12 180.697 418.757 180.697ZM423.121 215.065L425.213 221.509C427.85 220.201 430.487 219.08 433.124 218.24L431.123 212.076C428.032 213.01 425.395 214.037 423.121 215.065ZM381.839 190.503L377.747 184.059C375.473 185.273 373.109 186.58 370.654 188.075L374.837 194.612C377.201 193.118 379.474 191.717 381.839 190.503ZM400.479 232.529L404.844 239.253C406.39 236.918 408.209 234.77 410.209 232.622L406.117 226.272C404.026 228.233 402.116 230.381 400.479 232.529ZM387.294 262.601L394.66 268.578C395.024 264.935 395.66 261.293 396.569 257.651L390.022 252.328C388.84 255.783 388.022 259.239 387.294 262.601ZM347.467 218.24L341.011 212.45C338.646 214.784 336.373 217.119 334.282 219.454L341.283 225.618C343.193 223.096 345.284 220.575 347.467 218.24ZM320.005 259.986L309.548 256.063C307.821 260.079 305.911 264.749 305.002 267.27L315.459 271.193C316.641 268.017 318.551 263.441 320.005 259.986ZM385.93 286.322C386.112 291.272 386.567 295.287 387.022 298.089L397.933 302.105C397.115 298.463 396.297 294.353 395.751 289.964L385.93 286.322Z" fill="black"/>
</g>
<g clip-path="url(#clip3_14_116)">
<path d="M869.422 225.484C869.421 223.319 868.9 221.407 867.847 219.766C866.813 218.151 865.263 216.798 863.185 215.729C846.031 206.937 828.859 198.173 811.711 189.372C807.087 187 802.605 187.087 798.016 189.493C791.188 193.072 757.002 210.48 746.815 215.724C742.62 217.883 740.579 221.186 740.578 225.48C740.571 243.16 740.578 260.84 740.571 278.52C740.571 280.637 741.071 282.513 742.078 284.129C743.113 285.792 744.684 287.182 746.81 288.276C756.997 293.52 791.187 310.926 798.014 314.506C802.605 316.914 807.087 317 811.712 314.627C828.861 305.826 846.034 297.062 863.191 288.27C865.317 287.177 866.888 285.786 867.923 284.124C868.928 282.508 869.429 280.632 869.429 278.515C869.429 278.515 869.429 243.164 869.422 225.484Z" fill="#A179DC"/>
<path d="M805.197 251.827L742.078 284.129C743.113 285.792 744.684 287.182 746.81 288.276C756.997 293.52 791.187 310.926 798.014 314.506C802.605 316.914 807.087 317 811.712 314.627C828.862 305.826 846.034 297.062 863.191 288.27C865.317 287.177 866.888 285.786 867.923 284.124L805.197 251.827Z" fill="#280068"/>
<path d="M869.422 225.484C869.421 223.319 868.9 221.407 867.847 219.766L805.197 251.828L867.923 284.124C868.928 282.508 869.428 280.632 869.429 278.515C869.429 278.515 869.429 243.164 869.422 225.484Z" fill="#390091"/>
<path d="M842.36 239.752V245.79H849.153V239.752H852.55V245.79H859.343V248.809H852.55V254.846H859.343V257.865H852.55V263.903H849.153V257.865H842.36V263.903H838.963V257.865H832.17V254.846H838.963V248.809H832.17V245.79H838.963V239.752H842.36ZM849.153 248.809H842.36V254.846H849.153V248.809Z" fill="white"/>
<path d="M805.336 209.43C823.054 209.43 838.524 217.982 846.81 230.695L846.729 230.573L825.882 241.241C821.775 235.061 814.246 230.889 805.608 230.803L805.335 230.802C792.164 230.802 781.485 240.293 781.485 252C781.481 255.689 782.566 259.316 784.631 262.517C788.742 268.896 796.47 273.198 805.336 273.198C814.256 273.198 822.028 268.841 826.118 262.394L826.019 262.548L846.835 273.266C838.639 285.872 823.382 294.398 805.869 294.568L805.336 294.57C787.561 294.57 772.048 285.965 763.782 273.185C759.747 266.946 757.439 259.713 757.439 252C757.439 228.489 778.882 209.429 805.335 209.429L805.336 209.43Z" fill="white"/>
</g>
<defs>
<clipPath id="clip0_14_116">
<rect width="130" height="130" fill="white"/>
</clipPath>
<clipPath id="clip1_14_116">
<rect width="130" height="130" fill="white" transform="translate(194)"/>
</clipPath>
<clipPath id="clip2_14_116">
<rect width="360" height="130" fill="white" transform="translate(305 175)"/>
</clipPath>
<clipPath id="clip3_14_116">
<rect width="130" height="130" fill="white" transform="translate(740 187)"/>
</clipPath>
</defs>
</svg>
