<svg width="45" height="45" viewBox="0 0 45 45" fill="none" xmlns="http://www.w3.org/2000/svg">
<g clip-path="url(#clip0_5_41)">
<path fill-rule="evenodd" clip-rule="evenodd" d="M45 45H36V29.2522C36 24.9322 34.0943 22.522 30.6765 22.522C26.9573 22.522 24.75 25.0334 24.75 29.2522V45H15.75V15.75H24.75V19.0393C24.75 19.0393 27.5737 14.0845 33.9367 14.0845C40.302 14.0845 45 17.9687 45 26.0057V45ZM5.4945 11.072C2.45925 11.072 0 8.59266 0 5.53491C0 2.47941 2.45925 0 5.4945 0C8.5275 0 10.9867 2.47941 10.9867 5.53491C10.989 8.59266 8.5275 11.072 5.4945 11.072ZM0 45H11.25V15.75H0V45Z" fill="black"/>
</g>
<defs>
<clipPath id="clip0_5_41">
<rect width="45" height="45" fill="white"/>
</clipPath>
</defs>
</svg>
